<svg xmlns="http://www.w3.org/2000/svg" viewBox="0 0 138.2 135.8"><defs><style>.cls-1,.cls-5{fill:none;stroke-miterlimit:10;}.cls-1{stroke:#fff;stroke-width:0.25px;}.cls-2{fill:#ff2020;}.cls-3{fill:#20ff20;}.cls-4{fill:lime;}.cls-5{stroke:blue;stroke-width:0.75px;}.cls-6{fill:blue;}</style></defs><g id="World_Map" data-name="World Map"><polygon class="cls-1" points="415.94 287.27 424.19 287.27 424.19 271.49 437.01 258.68 437.01 249.72 417.91 249.72 412.15 255.47 397.59 255.47 390.19 262.88 390.19 278.94 381.83 287.3 361.35 287.3 356.47 292.18 349.08 292.18 340.7 283.81 335.63 283.81 325.67 273.85 325.67 264.33 315.13 253.79 315.13 232.47 322.17 225.44 322.17 191.84 307.86 191.84 307.86 173.72 297.93 163.79 297.93 151.22 290.77 144.06 272.5 144.06 272.5 155.02 262.85 155.02 251.16 143.33 251.16 134.56 234.36 117.75 219.6 117.75 219.6 121.99 185.11 121.99 149.16 101.53 124.02 101.53 124.02 114.39 135.28 125.64 135.28 144.79 147.77 157.28 147.77 167.58 140.97 167.58 140.97 171.97 165.84 196.83 165.84 207.33 183.07 224.57 183.07 229.26 186.28 232.47 190.52 228.23 190.52 220.49 178.31 208.29 178.31 189.8 167.97 179.46 167.97 169.34 158.57 159.93 158.57 150.05 149.48 140.96 149.48 115.27 154.42 115.27 165.53 126.37 165.53 144.5 185.11 164.08 185.11 176.06 195.78 186.73 195.78 193.96 206.92 205.1 206.92 210.84 233.72 237.64 233.72 260.82 228.66 260.82 228.66 266.67 253.84 291.84 265.78 291.84 278.32 304.39 292.08 304.39 302.01 314.32 310.5 314.32 317.27 321.09 331.25 321.09 340.48 311.85 348.35 311.85 370.74 333.71 370.74 320.88 377.81 313.81 391.9 313.81 391.9 311.82 380.35 300.28 385.32 300.28 385.32 294.43 404.17 294.43 411.06 287.55 415.94 287.27"/><polygon class="cls-1" points="322.17 191.84 328.75 185.26 328.75 173.14 342.57 159.32 356.97 159.32 367.6 148.69 389.12 148.69 399.44 159.02 412.5 159.02 412.5 145.96 418.05 140.4 450.5 140.4 463.21 153.12 470.96 145.37 476.22 145.37 486.16 155.31 486.16 180.74 494.48 189.07 494.48 199.44 503.62 208.58 512.02 200.18 512.02 182.78 507.86 178.62 507.86 160.28 503.87 156.3 503.87 131.15 512.04 122.98 512.04 118.29 518.29 112.04 526.64 112.04 538.73 99.94 542.78 99.94 554.09 88.63 562.15 88.63 562.15 81.46 566.63 81.46 571.89 76.2 571.89 60.42 567.8 60.42 567.8 28.27 573.06 23.01 573.06 40.54 575.98 43.46 575.98 56.13 578.9 53.21 578.9 46.39 584.85 40.44 584.85 33.14 580.71 29 580.71 21.64 583.6 18.74 583.6 26.32 588.85 31.57 596.73 23.69 596.73 19.89 600.29 16.33 600.29 6.83 606.84 0.28 629.18 0.28 634.47 -5.02 641.84 -5.02 645.85 -9.03 645.85 -13.04 643.01 -13.04 638.53 -8.56 638.53 -21.23 644.57 -27.27 644.57 -31.55 650.51 -37.5 656.85 -37.5 663.03 -43.68 679.25 -43.68 683.71 -48.14 683.71 -52.99 679.84 -52.99 679.84 -61.95 677.11 -61.95 677.11 -84.55 665.61 -84.55 654.99 -73.93 654.99 -66.63 643.25 -54.89 600.92 -54.89 586.82 -40.78 586.82 -34.67 581.69 -29.54 571.89 -29.54 569.03 -32.4 557.67 -32.4 554.71 -29.44 554.71 -22.78 547.13 -15.2 534.87 -15.2 525.99 -6.33 509.93 -6.33 504.82 -11.44 514.12 -20.74 514.12 -25.32 518.69 -25.32 518.69 -43.63 516.36 -45.97 509.83 -39.44 506.13 -43.15 516.36 -53.38 516.36 -59.81 506.32 -69.84 499.21 -69.84 486.11 -56.74 486.11 -45.39 480.19 -39.47 480.19 -23.76 469.92 -13.49 466.09 -13.49 462.22 -17.36 462.22 -38.57 468.93 -45.27 468.93 -63.31 482.02 -76.41 499.6 -76.41 503.14 -72.87 504.97 -74.7 512.07 -74.7 502.58 -84.19 480.5 -84.19 472.43 -92.26 478.26 -98.09 475.34 -101.02 462.77 -88.45 453.22 -88.45 450.11 -85.33 443.68 -85.33 443.68 -92.15 434.52 -92.15 444.6 -102.23 450.5 -102.23 456.85 -108.59 451.47 -108.59 448.68 -111.38 436.86 -111.38 428.74 -119.5 421.07 -119.5 412.92 -127.65 129.58 -155.09 129.58 -136.97 125.09 -132.49 117.4 -140.18 112.04 -140.18 105.07 -147.15 101.32 -143.4 101.32 -107.16 96.84 -102.67 96.84 -91.18 92.46 -86.79 92.46 -73.64 79.65 -60.83 79.65 -25.32 73.24 -18.91 73.24 -14.21 77.64 -9.82 77.64 12.68 84.51 19.55 84.51 26.18 86.13 26.18 86.15 20.33 87.99 18.49 91.05 21.03 88.51 23.69 88.67 33.43 90.2 35.08 90.19 37.34 89.21 37.34 86.21 33.92 86.19 27.63 84.51 27.64 84.51 37.62 88.05 41.15 88.05 55.93 94.59 62.48 94.59 76.4 105.61 76.4 112.62 83.41 116.33 83.41 116.33 88.48 120.22 88.48 124.02 93.2 124.02 101.53 149.16 101.53 185.11 121.99 219.6 121.99 219.6 117.75 234.36 117.75 251.16 134.56 251.16 143.33 262.85 155.02 272.5 155.02 272.5 144.06 290.77 144.06 297.93 151.22 297.93 163.79 307.86 173.72 307.86 191.84 322.17 191.84"/></g><g id="Voyage_Route" data-name="Voyage Route"><polygon class="cls-2" points="118.74 135.34 120.2 137.92 120.22 134.96 118.74 135.34"/><polygon class="cls-2" points="118.92 130.84 119.76 133.68 120.45 130.8 118.92 130.84"/><polygon class="cls-2" points="118.81 126.55 119.65 129.39 120.34 126.51 118.81 126.55"/><polygon class="cls-2" points="118.7 122.26 119.54 125.1 120.24 122.22 118.7 122.26"/><polygon class="cls-2" points="118.6 117.97 119.43 120.81 120.13 117.93 118.6 117.97"/><polygon class="cls-2" points="118.75 113.58 119.13 116.51 120.27 113.78 118.75 113.58"/><polygon class="cls-2" points="120.23 109.4 120.15 112.36 121.7 109.84 120.23 109.4"/><polygon class="cls-2" points="121.47 105.29 121.38 108.25 122.94 105.73 121.47 105.29"/><polygon class="cls-2" points="122.7 101.18 122.61 104.14 124.17 101.62 122.7 101.18"/><polygon class="cls-2" points="121.64 99.22 124.56 99.7 122.28 97.82 121.64 99.22"/><polygon class="cls-2" points="117.73 97.44 120.66 97.93 118.37 96.05 117.73 97.44"/><polygon class="cls-2" points="113.83 95.67 116.75 96.16 114.46 94.28 113.83 95.67"/><polygon class="cls-2" points="111.22 91.72 113.45 93.66 112.49 90.86 111.22 91.72"/><polygon class="cls-2" points="108.81 88.16 111.05 90.11 110.08 87.31 108.81 88.16"/><polygon class="cls-2" points="108 83.63 109.14 86.36 109.52 83.42 108 83.63"/><polygon class="cls-2" points="107.42 79.38 108.57 82.11 108.94 79.17 107.42 79.38"/><polygon class="cls-2" points="104.27 80.09 107.04 79.05 104.12 78.56 104.27 80.09"/><polygon class="cls-2" points="100 80.5 102.77 79.46 99.85 78.97 100 80.5"/><polygon class="cls-2" points="95.73 80.9 98.5 79.87 95.58 79.38 95.73 80.9"/><polygon class="cls-2" points="91.65 78.31 94.49 79.16 92.46 77.01 91.65 78.31"/><polygon class="cls-2" points="88 76.06 90.84 76.91 88.8 74.76 88 76.06"/><polygon class="cls-2" points="84.35 73.81 87.18 74.66 85.15 72.51 84.35 73.81"/><polygon class="cls-2" points="81.92 69.81 84.19 71.7 83.17 68.93 81.92 69.81"/><polygon class="cls-2" points="79.44 66.31 81.71 68.2 80.69 65.43 79.44 66.31"/><polygon class="cls-2" points="76.96 62.81 79.23 64.7 78.21 61.92 76.96 62.81"/><polygon class="cls-2" points="75.5 58.54 77.16 60.99 76.95 58.04 75.5 58.54"/><polygon class="cls-2" points="74.1 54.48 75.76 56.94 75.55 53.98 74.1 54.48"/><polygon class="cls-2" points="72.7 50.43 74.36 52.88 74.15 49.93 72.7 50.43"/><polygon class="cls-2" points="72.34 45.95 73.17 48.79 73.87 45.91 72.34 45.95"/><polygon class="cls-2" points="72.25 41.66 73.08 44.5 73.78 41.62 72.25 41.66"/><polygon class="cls-2" points="72.15 37.37 72.98 40.21 73.69 37.34 72.15 37.37"/><polygon class="cls-2" points="74.45 33.27 73.67 36.12 75.77 34.04 74.45 33.27"/><polygon class="cls-2" points="76.62 29.56 75.83 32.42 77.94 30.34 76.62 29.56"/><polygon class="cls-2" points="80.94 27.86 78.22 29.05 81.17 29.38 80.94 27.86"/><polygon class="cls-2" points="85.18 27.22 82.47 28.41 85.41 28.73 85.18 27.22"/><polygon class="cls-2" points="89.42 26.57 86.71 27.76 89.65 28.09 89.42 26.57"/><polygon class="cls-2" points="83.35 28.51 86.17 27.6 83.27 26.98 83.35 28.51"/><polygon class="cls-2" points="79.06 28.73 81.88 27.82 78.99 27.2 79.06 28.73"/><polygon class="cls-2" points="74.78 28.95 77.6 28.04 74.7 27.42 74.78 28.95"/><polygon class="cls-2" points="70.5 29.17 73.31 28.26 70.42 27.64 70.5 29.17"/><polygon class="cls-2" points="66.21 29.39 69.03 28.48 66.13 27.86 66.21 29.39"/><polygon class="cls-2" points="61.93 29.61 64.74 28.7 61.85 28.08 61.93 29.61"/><polygon class="cls-2" points="57.64 29.82 60.46 28.91 57.56 28.29 57.64 29.82"/><polygon class="cls-2" points="53.36 30.04 56.17 29.13 53.28 28.51 53.36 30.04"/><polygon class="cls-2" points="49.07 30.26 51.89 29.35 48.99 28.73 49.07 30.26"/><polygon class="cls-2" points="44.79 30.48 47.6 29.57 44.71 28.95 44.79 30.48"/><polygon class="cls-2" points="40.5 30.7 43.32 29.79 40.42 29.17 40.5 30.7"/><polygon class="cls-2" points="36.22 30.92 39.03 30.01 36.14 29.39 36.22 30.92"/><polygon class="cls-2" points="32.19 31.78 34.76 30.32 31.8 30.29 32.19 31.78"/><polygon class="cls-2" points="28.04 32.86 30.61 31.4 27.65 31.38 28.04 32.86"/><polygon class="cls-2" points="23.89 33.94 26.46 32.48 23.5 32.46 23.89 33.94"/><polygon class="cls-2" points="19.73 35.02 22.31 33.56 19.35 33.54 19.73 35.02"/><polygon class="cls-2" points="15.58 36.11 18.16 34.64 15.2 34.62 15.58 36.11"/><polygon class="cls-2" points="11.43 37.19 14.01 35.73 11.05 35.7 11.43 37.19"/><polygon class="cls-2" points="7.28 38.27 9.86 36.81 6.89 36.79 7.28 38.27"/><polygon class="cls-2" points="3.13 39.35 5.7 37.89 2.74 37.87 3.13 39.35"/><polygon class="cls-2" points="-1.02 40.44 1.55 38.97 -1.41 38.95 -1.02 40.44"/></g><g id="Current"><path class="cls-3" d="M47.27-22.58A181.81,181.81,0,0,1,58,20.05a192,192,0,0,1,1.4,22v3.14l-2-.87,2.34,5.79,2.54-5.77-2.05.86v-.82l0-2.33A191.47,191.47,0,0,0,58.78,20,182.74,182.74,0,0,0,48-22.86Z"/><path class="cls-3" d="M59.06,98.51a113.38,113.38,0,0,1-3.48,34.41,147.27,147.27,0,0,1-5.35,16.52l-1,2.59-1.57-1.56c.05,2.07,0,4.14,0,6.24,1.51-1.44,3-2.9,4.51-4.42l-2.23,0,1-2.6a148.88,148.88,0,0,0,5.38-16.61,114.29,114.29,0,0,0,3.51-34.65Z"/><path class="cls-3" d="M97.13,86.24c3.47,8,6.66,16.2,9.46,24.49q2.11,6.21,3.9,12.53l.67,2.39-2.2-.29q1.94,2.43,3.84,4.94.47-3.11.87-6.25l-1.74,1.39-.67-2.4q-1.8-6.33-3.92-12.57c-2.81-8.31-6-16.49-9.48-24.55Z"/><path class="cls-4" d="M60.23,5.34c1.31-.22,2.1.2,2.25,1.08S62,8,60.73,8.18,58.6,8,58.45,7.11,58.94,5.57,60.23,5.34Zm.4,2.29C61.72,7.44,62.08,7,62,6.5s-.58-.79-1.67-.6-1.48.63-1.4,1.13S59.54,7.81,60.63,7.63Zm-.19-1.27a.4.4,0,0,1,.49.32.43.43,0,1,1-.49-.32Z"/><path class="cls-4" d="M59.56,10.12a.56.56,0,1,1-.47.65A.55.55,0,0,1,59.56,10.12Z"/><path class="cls-4" d="M63.28,14.57l-.37-2.16.52-.09.49,2.84-.37.06a4.88,4.88,0,0,0-3.74-.69l-.1-.63A5.13,5.13,0,0,1,63.28,14.57Z"/><path class="cls-4" d="M62.78,117c1.31.23,1.9.9,1.75,1.77s-1,1.3-2.25,1.07-1.93-.91-1.78-1.78S61.48,116.81,62.78,117Zm-.4,2.28c1.08.19,1.58-.09,1.67-.59s-.28-.94-1.37-1.14-1.61.09-1.7.59S61.29,119.13,62.38,119.32Zm.25-1.25a.39.39,0,0,1,.35.47.4.4,0,0,1-.49.32.4.4,0,1,1,.14-.79Z"/><path class="cls-4" d="M60.52,121.3a.56.56,0,1,1-.19,1.1.56.56,0,1,1,.19-1.1Z"/><path class="cls-4" d="M61.78,126.24l.72.16v0l-.52-.5-1-1.14-.43,2.46-.48-.08L60.6,124l.41.08,2.1,2.28L63,127l-3.87-.69.1-.56Z"/></g><g id="Wind_Rose" data-name="Wind Rose"><circle class="cls-5" cx="69.8" cy="83.99" r="6.57"/><polyline class="cls-5" points="58.68 60.67 57.53 63.33 66.41 78.36"/><line class="cls-5" x1="54.39" y1="63.33" x2="57.53" y2="63.33"/><polyline class="cls-5" points="55.35 64.8 58.27 64.8 59.7 62.18"/><line class="cls-5" x1="56.23" y1="66.09" x2="59.16" y2="66.09"/><polyline class="cls-5" points="72.93 60.67 74.99 62.79 71.41 77.62"/><line class="cls-5" x1="77.82" y1="61.88" x2="74.99" y2="62.79"/><polyline class="cls-5" points="72.54 62.18 74.66 64.16 77.52 63.33"/><polyline class="cls-5" points="55.48 77.69 56.34 80.56 63.44 82.3"/><line class="cls-5" x1="54.19" y1="82.74" x2="56.34" y2="80.56"/><polyline class="cls-5" points="55.98 83.12 57.77 80.77 57.07 77.85"/><polyline class="cls-5" points="78.42 75.65 78.04 78.75 75.03 80.56"/><line class="cls-5" x1="80.83" y1="79.94" x2="78.04" y2="78.75"/><polyline class="cls-5" points="79.52 80.98 76.55 79.65 76.78 76.38"/><line class="cls-5" x1="79.52" y1="83.42" x2="77.29" y2="85.58"/><polyline class="cls-5" points="81.07 83.99 79.09 86.08 76.23 85.33"/><line class="cls-5" x1="80.02" y1="88.94" x2="79.09" y2="86.08"/><line class="cls-5" x1="76.96" y1="90.57" x2="73.91" y2="90.57"/><polyline class="cls-5" points="73.46 94.7 74.78 91.92 73.24 89.59"/><line class="cls-5" x1="78.03" y1="91.92" x2="74.78" y2="91.92"/><polyline class="cls-5" points="64.8 93.77 67.65 92.97 68.35 90.41"/><line class="cls-5" x1="69.8" y1="94.98" x2="67.65" y2="92.97"/><polyline class="cls-5" points="65.08 92.28 68.02 91.61 70.07 93.37"/><polyline class="cls-5" points="61.58 91.92 61.54 88.82 64.12 87.31"/><line class="cls-5" x1="58.84" y1="87.51" x2="61.54" y2="88.82"/><polyline class="cls-5" points="62.91 90.95 62.73 88.12 60.25 86.65"/><path class="cls-6" d="M67.49,86.32c2.07-1.81,3.26-2.92,3.26-3.94,0-.7-.43-1.16-1.3-1.16A2.13,2.13,0,0,0,68,82l-.56-.56a2.87,2.87,0,0,1,2.15-1,1.9,1.9,0,0,1,2.12,1.92c0,1.17-1.17,2.34-2.77,3.78.39,0,.81,0,1.18,0h1.94v.84H67.49Z"/></g></svg>