<svg xmlns="http://www.w3.org/2000/svg" viewBox="0 0 138.2 135.8"><defs><style>.cls-1,.cls-5{fill:none;stroke-miterlimit:10;stroke-width:0.75px;}.cls-1{stroke:#fff;}.cls-2{fill:#ff2020;}.cls-3{fill:#20ff20;}.cls-4{font-size:6.18px;fill:lime;}.cls-4,.cls-6{font-family:Noteworthy-Bold, Noteworthy;font-weight:700;}.cls-5{stroke:blue;}.cls-6{font-size:10px;fill:blue;}</style></defs><g id="World_Map" data-name="World Map"><polygon class="cls-1" points="416.15 288.16 424.4 288.16 424.4 272.38 437.22 259.57 437.22 250.61 418.12 250.61 412.36 256.36 397.8 256.36 390.4 263.77 390.4 279.83 382.04 288.19 361.56 288.19 356.68 293.07 349.29 293.07 340.91 284.7 335.84 284.7 325.88 274.74 325.88 265.22 315.34 254.68 315.34 233.36 322.38 226.33 322.38 192.73 308.07 192.73 308.07 174.61 298.14 164.68 298.14 152.11 290.98 144.95 272.71 144.95 272.71 155.91 263.06 155.91 251.37 144.22 251.37 135.45 234.57 118.64 219.81 118.64 219.81 122.88 185.32 122.88 149.37 102.42 124.23 102.42 124.23 115.28 135.49 126.53 135.49 145.68 147.98 158.17 147.98 168.47 141.18 168.47 141.18 172.86 166.05 197.72 166.05 208.22 183.28 225.46 183.28 230.15 186.49 233.36 190.73 229.12 190.73 221.38 178.52 209.18 178.52 190.69 168.18 180.35 168.18 170.23 158.78 160.82 158.78 150.94 149.69 141.85 149.69 116.16 154.63 116.16 165.74 127.26 165.74 145.39 185.32 164.97 185.32 176.95 195.99 187.62 195.99 194.85 207.13 205.99 207.13 211.73 233.93 238.53 233.93 261.71 228.87 261.71 228.87 267.56 254.05 292.73 265.99 292.73 278.53 305.28 292.29 305.28 302.22 315.21 310.71 315.21 317.48 321.98 331.46 321.98 340.69 312.74 348.56 312.74 370.95 334.6 370.95 321.77 378.02 314.7 392.11 314.7 392.11 312.71 380.56 301.17 385.53 301.17 385.53 295.32 404.38 295.32 411.27 288.44 416.15 288.16"/><polygon class="cls-1" points="322.38 192.73 328.96 186.15 328.96 174.03 342.78 160.21 357.18 160.21 367.81 149.58 389.33 149.58 399.65 159.91 412.71 159.91 412.71 146.85 418.26 141.29 450.71 141.29 463.42 154.01 471.17 146.26 476.43 146.26 486.37 156.2 486.37 181.63 494.69 189.96 494.69 200.33 503.83 209.47 512.23 201.07 512.23 183.67 508.07 179.51 508.07 161.17 504.08 157.19 504.08 132.04 512.25 123.87 512.25 119.18 518.5 112.93 526.85 112.93 538.94 100.83 542.99 100.83 554.3 89.52 562.36 89.52 562.36 82.35 566.84 82.35 572.1 77.09 572.1 61.31 568.01 61.31 568.01 29.16 573.27 23.9 573.27 41.43 576.19 44.35 576.19 57.02 579.11 54.1 579.11 47.28 585.06 41.33 585.06 34.03 580.92 29.89 580.92 22.53 583.81 19.63 583.81 27.21 589.06 32.46 596.94 24.58 596.94 20.78 600.5 17.22 600.5 7.72 607.05 1.17 629.39 1.17 634.68 -4.13 642.05 -4.13 646.06 -8.14 646.06 -12.15 643.22 -12.15 638.74 -7.67 638.74 -20.34 644.78 -26.38 644.78 -30.66 650.72 -36.61 657.06 -36.61 663.24 -42.79 679.46 -42.79 683.92 -47.25 683.92 -52.1 680.05 -52.1 680.05 -61.06 677.32 -61.06 677.32 -83.66 665.82 -83.66 655.2 -73.04 655.2 -65.74 643.46 -54 601.13 -54 587.03 -39.89 587.03 -33.78 581.9 -28.65 572.1 -28.65 569.24 -31.51 557.88 -31.51 554.92 -28.55 554.92 -21.89 547.34 -14.31 535.08 -14.31 526.2 -5.44 510.14 -5.44 505.03 -10.55 514.33 -19.85 514.33 -24.43 518.9 -24.43 518.9 -42.74 516.57 -45.08 510.04 -38.55 506.34 -42.26 516.57 -52.49 516.57 -58.92 506.53 -68.95 499.42 -68.95 486.32 -55.85 486.32 -44.5 480.4 -38.58 480.4 -22.87 470.13 -12.6 466.3 -12.6 462.43 -16.47 462.43 -37.68 469.14 -44.38 469.14 -62.42 482.23 -75.52 499.81 -75.52 503.35 -71.98 505.18 -73.81 512.28 -73.81 502.79 -83.3 480.71 -83.3 472.64 -91.37 478.47 -97.2 475.55 -100.13 462.98 -87.56 453.43 -87.56 450.32 -84.44 443.89 -84.44 443.89 -91.26 434.73 -91.26 444.81 -101.34 450.71 -101.34 457.06 -107.7 451.68 -107.7 448.89 -110.49 437.07 -110.49 428.95 -118.61 421.28 -118.61 413.13 -126.76 129.79 -154.2 129.79 -136.08 125.3 -131.6 117.61 -139.29 112.25 -139.29 105.28 -146.26 101.53 -142.51 101.53 -106.27 97.05 -101.78 97.05 -90.29 92.67 -85.9 92.67 -72.75 79.86 -59.94 79.86 -24.43 73.45 -18.02 73.45 -13.32 77.85 -8.93 77.85 13.57 84.72 20.44 84.72 27.07 86.34 27.07 86.36 21.22 88.2 19.38 91.26 21.92 88.72 24.58 88.88 34.32 90.41 35.97 90.4 38.23 89.42 38.23 86.42 34.81 86.4 28.52 84.72 28.53 84.72 38.51 88.26 42.04 88.26 56.82 94.8 63.37 94.8 77.29 105.82 77.29 112.83 84.3 116.54 84.3 116.54 89.37 120.43 89.37 124.23 94.09 124.23 102.42 149.37 102.42 185.32 122.88 219.81 122.88 219.81 118.64 234.57 118.64 251.37 135.45 251.37 144.22 263.06 155.91 272.71 155.91 272.71 144.95 290.98 144.95 298.14 152.11 298.14 164.68 308.07 174.61 308.07 192.73 322.38 192.73"/></g><g id="Voyage_Route" data-name="Voyage Route"><polygon class="cls-2" points="119.13 131.73 119.97 134.57 120.66 131.69 119.13 131.73"/><polygon class="cls-2" points="119.02 127.44 119.86 130.28 120.56 127.4 119.02 127.44"/><polygon class="cls-2" points="118.92 123.15 119.75 125.99 120.45 123.11 118.92 123.15"/><polygon class="cls-2" points="118.81 118.86 119.64 121.7 120.34 118.82 118.81 118.86"/><polygon class="cls-2" points="118.97 114.47 119.34 117.41 120.48 114.67 118.97 114.47"/><polygon class="cls-2" points="120.45 110.29 120.36 113.25 121.92 110.73 120.45 110.29"/><polygon class="cls-2" points="121.68 106.18 121.59 109.14 123.15 106.62 121.68 106.18"/><polygon class="cls-2" points="122.92 102.07 122.83 105.03 124.38 102.51 122.92 102.07"/><polygon class="cls-2" points="121.85 100.11 124.77 100.6 122.49 98.72 121.85 100.11"/><polygon class="cls-2" points="117.95 98.34 120.87 98.82 118.58 96.94 117.95 98.34"/><polygon class="cls-2" points="114.04 96.56 116.96 97.05 114.67 95.17 114.04 96.56"/><polygon class="cls-2" points="111.43 92.61 113.66 94.55 112.7 91.75 111.43 92.61"/><polygon class="cls-2" points="109.03 89.06 111.26 91 110.3 88.2 109.03 89.06"/><polygon class="cls-2" points="108.21 84.52 109.36 87.25 109.73 84.32 108.21 84.52"/><polygon class="cls-2" points="107.64 80.27 108.78 83 109.16 80.07 107.64 80.27"/><polygon class="cls-2" points="104.48 80.98 107.26 79.95 104.34 79.46 104.48 80.98"/><polygon class="cls-2" points="100.21 81.39 102.98 80.36 100.06 79.86 100.21 81.39"/><polygon class="cls-2" points="95.94 81.8 98.71 80.76 95.79 80.27 95.94 81.8"/><polygon class="cls-2" points="91.87 79.2 94.7 80.05 92.67 77.9 91.87 79.2"/><polygon class="cls-2" points="88.21 76.96 91.05 77.8 89.02 75.65 88.21 76.96"/><polygon class="cls-2" points="84.56 74.71 87.4 75.55 85.36 73.4 84.56 74.71"/><polygon class="cls-2" points="82.13 70.71 84.41 72.6 83.38 69.82 82.13 70.71"/><polygon class="cls-2" points="79.65 67.2 81.93 69.1 80.9 66.32 79.65 67.2"/><polygon class="cls-2" points="77.17 63.7 79.45 65.59 78.42 62.82 77.17 63.7"/><polygon class="cls-2" points="75.72 59.43 77.38 61.88 77.16 58.93 75.72 59.43"/><polygon class="cls-2" points="74.31 55.38 75.97 57.83 75.76 54.88 74.31 55.38"/><polygon class="cls-2" points="72.91 51.32 74.57 53.77 74.36 50.82 72.91 51.32"/><polygon class="cls-2" points="72.55 46.84 73.38 49.68 74.08 46.81 72.55 46.84"/><polygon class="cls-2" points="72.46 42.55 73.29 45.39 73.99 42.52 72.46 42.55"/><polygon class="cls-2" points="72.36 38.26 73.19 41.1 73.9 38.23 72.36 38.26"/><polygon class="cls-2" points="74.66 34.16 73.88 37.02 75.98 34.94 74.66 34.16"/><polygon class="cls-2" points="76.83 30.46 76.05 33.31 78.15 31.23 76.83 30.46"/><polygon class="cls-2" points="81.15 28.75 78.44 29.94 81.38 30.27 81.15 28.75"/><polygon class="cls-2" points="85.39 28.11 82.68 29.3 85.62 29.63 85.39 28.11"/><polygon class="cls-2" points="89.63 27.47 86.92 28.66 89.86 28.98 89.63 27.47"/><polygon class="cls-2" points="83.56 29.41 86.38 28.5 83.48 27.88 83.56 29.41"/><polygon class="cls-2" points="79.28 29.63 82.09 28.71 79.2 28.09 79.28 29.63"/><polygon class="cls-2" points="74.99 29.84 77.81 28.93 74.91 28.31 74.99 29.84"/><polygon class="cls-2" points="70.71 30.06 73.52 29.15 70.63 28.53 70.71 30.06"/><polygon class="cls-2" points="66.42 30.28 69.24 29.37 66.34 28.75 66.42 30.28"/><polygon class="cls-2" points="62.14 30.5 64.95 29.59 62.06 28.97 62.14 30.5"/><polygon class="cls-2" points="57.85 30.72 60.67 29.81 57.77 29.19 57.85 30.72"/><polygon class="cls-2" points="53.57 30.94 56.39 30.03 53.49 29.41 53.57 30.94"/><polygon class="cls-2" points="49.28 31.16 52.1 30.24 49.2 29.63 49.28 31.16"/><polygon class="cls-2" points="45 31.37 47.82 30.46 44.92 29.84 45 31.37"/><polygon class="cls-2" points="40.71 31.59 43.53 30.68 40.64 30.06 40.71 31.59"/><polygon class="cls-2" points="36.43 31.81 39.25 30.9 36.35 30.28 36.43 31.81"/><polygon class="cls-2" points="32.4 32.67 34.98 31.21 32.02 31.19 32.4 32.67"/><polygon class="cls-2" points="28.25 33.75 30.82 32.29 27.86 32.27 28.25 33.75"/><polygon class="cls-2" points="24.1 34.84 26.67 33.37 23.71 33.35 24.1 34.84"/><polygon class="cls-2" points="19.95 35.92 22.52 34.45 19.56 34.43 19.95 35.92"/><polygon class="cls-2" points="15.79 37 18.37 35.54 15.41 35.52 15.79 37"/><polygon class="cls-2" points="11.64 38.08 14.22 36.62 11.26 36.6 11.64 38.08"/><polygon class="cls-2" points="7.49 39.16 10.07 37.7 7.11 37.68 7.49 39.16"/><polygon class="cls-2" points="3.34 40.25 5.92 38.78 2.95 38.76 3.34 40.25"/><polygon class="cls-2" points="-0.81 41.33 1.76 39.87 -1.2 39.84 -0.81 41.33"/></g><g id="Current"><path class="cls-3" d="M47.48-21.69A181.81,181.81,0,0,1,58.2,20.94a189.89,189.89,0,0,1,1.4,22l0,2.33v.82l-2-.88L59.92,51l2.54-5.78-2.06.86v-.81l0-2.34A191.61,191.61,0,0,0,59,20.84,183.21,183.21,0,0,0,48.23-22Z"/><path class="cls-3" d="M59.28,99.4a113.17,113.17,0,0,1-3.49,34.42,145.74,145.74,0,0,1-5.35,16.51l-1,2.6-1.57-1.57c.06,2.07,0,4.15,0,6.25,1.5-1.45,3-2.91,4.5-4.43l-2.22,0,1-2.61A148.88,148.88,0,0,0,56.56,134a114.29,114.29,0,0,0,3.51-34.65Z"/><path class="cls-3" d="M97.34,87.13c3.48,8,6.66,16.2,9.46,24.49q2.11,6.21,3.91,12.53l.66,2.39-2.2-.29c1.3,1.62,2.57,3.27,3.84,4.94q.46-3.1.87-6.25l-1.74,1.39-.67-2.4q-1.8-6.33-3.91-12.56c-2.82-8.32-6-16.5-9.49-24.55Z"/><text class="cls-4" transform="translate(58.47 6.47) rotate(80.16)">0.7</text><text class="cls-4" transform="translate(61.17 116.86) rotate(100.05)">0.4</text></g><g id="Wind_Rose" data-name="Wind Rose"><circle class="cls-5" cx="70.01" cy="84.89" r="6.57"/><polyline class="cls-5" points="58.89 61.57 57.74 64.22 66.63 79.25"/><line class="cls-5" x1="54.6" y1="64.22" x2="57.74" y2="64.22"/><polyline class="cls-5" points="55.57 65.69 58.48 65.69 59.92 63.08"/><line class="cls-5" x1="56.44" y1="66.98" x2="59.37" y2="66.98"/><polyline class="cls-5" points="73.14 61.57 75.2 63.68 71.62 78.52"/><line class="cls-5" x1="78.04" y1="62.77" x2="75.2" y2="63.68"/><polyline class="cls-5" points="72.75 63.08 74.87 65.06 77.73 64.22"/><polyline class="cls-5" points="55.69 78.58 56.55 81.46 63.66 83.19"/><line class="cls-5" x1="54.4" y1="83.63" x2="56.55" y2="81.46"/><polyline class="cls-5" points="56.19 84.02 57.98 81.66 57.28 78.74"/><polyline class="cls-5" points="78.63 76.55 78.25 79.65 75.24 81.46"/><line class="cls-5" x1="81.05" y1="80.83" x2="78.25" y2="79.65"/><polyline class="cls-5" points="79.73 81.87 76.77 80.54 76.99 77.27"/><line class="cls-5" x1="79.73" y1="84.32" x2="77.5" y2="86.47"/><polyline class="cls-5" points="81.28 84.89 79.31 86.98 76.45 86.23"/><line class="cls-5" x1="80.23" y1="89.83" x2="79.31" y2="86.98"/><line class="cls-5" x1="77.17" y1="91.46" x2="74.12" y2="91.46"/><polyline class="cls-5" points="73.67 95.59 75 92.81 73.45 90.49"/><line class="cls-5" x1="78.25" y1="92.81" x2="75" y2="92.81"/><polyline class="cls-5" points="65.01 94.67 67.86 93.86 68.56 91.3"/><line class="cls-5" x1="70.01" y1="95.87" x2="67.86" y2="93.86"/><polyline class="cls-5" points="65.29 93.17 68.23 92.5 70.28 94.26"/><polyline class="cls-5" points="61.79 92.81 61.76 89.71 64.33 88.2"/><line class="cls-5" x1="59.05" y1="88.41" x2="61.75" y2="89.71"/><polyline class="cls-5" points="63.12 91.84 62.94 89.02 60.46 87.54"/><text class="cls-6" transform="translate(66.27 88.7)">2</text></g></svg>